<svg width="80" height="80" viewBox="0 0 80 80" fill="none" xmlns="http://www.w3.org/2000/svg">
<g clip-path="url(#clip0_30_12322)">
<path d="M1.25653 40C1.49466 61.3965 18.7808 78.7296 40 78.7296C61.2192 78.7296 78.5053 61.3965 78.7435 40H80C79.7619 62.097 61.9108 80 40 80C18.0892 80 0.238133 62.097 0 40H1.25653Z" fill="white"/>
<path d="M7.54552 40C7.78365 57.8927 22.2464 72.3765 40 72.3765C57.7536 72.3765 72.2163 57.8927 72.4545 40H73.711C73.4729 58.5932 58.4464 73.6469 40 73.6469C21.5536 73.6469 6.52712 58.5932 6.28899 40H7.54552Z" fill="white"/>
<path d="M12.5729 40C12.811 55.0907 25.0192 67.2937 40 67.2937C54.9808 67.2937 67.1902 55.0895 67.4271 40H68.6836C68.4467 55.7912 55.675 68.5654 40 68.5654C24.325 68.5654 11.5532 55.7912 11.3164 40H12.5729Z" fill="white"/>
<path d="M16.9708 40C17.2076 52.6384 27.4436 62.8474 40 62.8474C52.5565 62.8474 62.7924 52.6384 63.0292 40H64.2858C64.0489 53.3389 53.2493 64.1178 40 64.1178C26.7507 64.1178 15.9511 53.3389 15.7142 40H16.9708Z" fill="white"/>
<path d="M21.8576 40C22.0932 49.9132 30.1377 57.9068 40 57.9068C49.8622 57.9068 57.9056 49.9132 58.1424 40H59.399C59.1621 50.6137 50.5551 59.1772 40 59.1772C29.4449 59.1772 20.8379 50.6137 20.601 40H21.8576Z" fill="white"/>
<path d="M26.396 40C26.6304 47.384 32.6407 53.3184 40 53.3184C47.3593 53.3184 53.3696 47.3827 53.604 40H54.8605C54.6249 48.0845 48.0522 54.59 40 54.59C31.9478 54.59 25.3738 48.0845 25.1395 40H26.396Z" fill="white"/>
<path d="M30.8648 40C31.0953 44.8919 35.1056 48.8017 40 48.8017C44.8944 48.8017 48.9046 44.8932 49.1352 40H50.3917C50.1599 45.5937 45.5872 50.072 39.9987 50.072C34.4102 50.072 29.8388 45.5937 29.6057 40H30.8648Z" fill="white"/>
<path d="M35.3437 40C35.5667 42.3986 37.5693 44.2836 40 44.2836C42.4307 44.2836 44.4333 42.3999 44.6563 40H45.9128C45.6848 43.1004 43.1236 45.554 40 45.554C36.8764 45.554 34.3139 43.1004 34.0872 40H35.3437Z" fill="white"/>
<path d="M38.1722 40C38.3723 40.8362 39.1133 41.4599 40 41.4599C40.8867 41.4599 41.6289 40.8349 41.8291 40H43.1084C42.8931 41.5405 41.5833 42.7315 40 42.7315C38.4179 42.7315 37.1082 41.5418 36.8916 40H38.1722Z" fill="white"/>
</g>
<g clip-path="url(#clip1_30_12322)">
<path d="M78.7435 40C78.5053 18.6035 61.2192 1.27037 40 1.27037C18.7808 1.27037 1.49467 18.6035 1.25653 40H-2.73632e-06C0.23813 17.903 18.0892 0 40 0C61.9108 0 79.7619 17.903 80 40H78.7435Z" fill="white"/>
<path d="M72.4545 40C72.2164 22.1073 57.7536 7.62352 40 7.62352C22.2464 7.62352 7.78367 22.1073 7.54553 40H6.289C6.52714 21.4068 21.5536 6.35315 40 6.35315C58.4464 6.35315 73.4729 21.4068 73.711 40H72.4545Z" fill="white"/>
<path d="M67.4271 40C67.189 24.9093 54.9808 12.7063 40 12.7063C25.0192 12.7063 12.8098 24.9105 12.5729 40H11.3164C11.5533 24.2088 24.325 11.4346 40 11.4346C55.675 11.4346 68.4468 24.2088 68.6836 40H67.4271Z" fill="white"/>
<path d="M63.0292 40C62.7924 27.3616 52.5564 17.1526 40 17.1526C27.4435 17.1526 17.2076 27.3616 16.9708 40H15.7142C15.9511 26.6611 26.7507 15.8822 40 15.8822C53.2493 15.8822 64.0489 26.6611 64.2858 40H63.0292Z" fill="white"/>
<path d="M58.1424 40C57.9068 30.0868 49.8623 22.0932 40 22.0932C30.1378 22.0932 22.0944 30.0868 21.8576 40H20.601C20.8379 29.3863 29.4449 20.8228 40 20.8228C50.5551 20.8228 59.1621 29.3863 59.399 40H58.1424Z" fill="white"/>
<path d="M53.604 40C53.3696 32.616 47.3593 26.6816 40 26.6816C32.6407 26.6816 26.6304 32.6173 26.396 40H25.1395C25.3751 31.9155 31.9478 25.41 40 25.41C48.0522 25.41 54.6262 31.9155 54.8605 40H53.604Z" fill="white"/>
<path d="M49.1352 40C48.9047 35.1081 44.8944 31.1983 40 31.1983C35.1056 31.1983 31.0954 35.1068 30.8648 40H29.6083C29.8401 34.4063 34.4128 29.928 40.0013 29.928C45.5898 29.928 50.1612 34.4063 50.3943 40H49.1352Z" fill="white"/>
<path d="M44.6563 40C44.4333 37.6014 42.4307 35.7164 40 35.7164C37.5693 35.7164 35.5667 37.6001 35.3437 40H34.0872C34.3152 36.8996 36.8764 34.446 40 34.446C43.1236 34.446 45.6861 36.8996 45.9128 40H44.6563Z" fill="white"/>
<path d="M41.8278 40C41.6277 39.1638 40.8867 38.5401 40 38.5401C39.1133 38.5401 38.3711 39.1651 38.1709 40H36.8916C37.1069 38.4595 38.4167 37.2685 40 37.2685C41.5821 37.2685 42.8918 38.4582 43.1084 40H41.8278Z" fill="white"/>
</g>
<defs>
<clipPath id="clip0_30_12322">
<rect width="80" height="40" fill="white" transform="matrix(1 0 0 -1 0 80)"/>
</clipPath>
<clipPath id="clip1_30_12322">
<rect width="80" height="40" fill="white" transform="matrix(-1 0 0 1 80 0)"/>
</clipPath>
</defs>
</svg>
